<svg xmlns="http://www.w3.org/2000/svg" viewBox="0 0 900 600"><g><text x="50%" y="0" style="fill: rgb(54, 58, 61); dominant-baseline: text-before-edge; text-anchor: middle; font-weight: bold; font-size: 13px; font-family: sans-serif;">Training Loss</text><text x="275.625" y="23.000000476837158" style="fill: rgb(71, 154, 95); dominant-baseline: text-before-edge; font-size: 11px; font-family: sans-serif;"/><text x="293.7750244140625" y="23.000000476837158" style="fill: rgb(71, 154, 95); dominant-baseline: text-before-edge; font-size: 11px; font-family: sans-serif;"> neat-totem-19</text><text x="395.17498779296875" y="23.000000476837158" style="fill: rgb(237, 183, 50); dominant-baseline: text-before-edge; font-size: 11px; font-family: sans-serif;"/><text x="413.32501220703125" y="23.000000476837158" style="fill: rgb(237, 183, 50); dominant-baseline: text-before-edge; font-size: 11px; font-family: sans-serif;"> gallant-music-9</text><text x="526.9249877929688" y="23.000000476837158" style="fill: rgb(197, 101, 199); dominant-baseline: text-before-edge; font-size: 11px; font-family: sans-serif;"/><text x="545.0750122070312" y="23.000000476837158" style="fill: rgb(197, 101, 199); dominant-baseline: text-before-edge; font-size: 11px; font-family: sans-serif;"> clear-hill-8</text></g><g transform="translate(0, 35.799999713897705)"><svg class="rv-xy-plot__inner" width="900" height="564"><g transform="translate(50,10)" class="rv-xy-plot__grid-lines"><line y1="520" y2="520" x1="0" x2="830" class="rv-xy-plot__grid-lines__line" style="stroke-width: 0.5;"/><line y1="442.36048483233003" y2="442.36048483233003" x1="0" x2="830" class="rv-xy-plot__grid-lines__line" style="stroke-width: 0.5;"/><line y1="364.7209696646601" y2="364.7209696646601" x1="0" x2="830" class="rv-xy-plot__grid-lines__line" style="stroke-width: 0.5;"/><line y1="287.08145449699015" y2="287.08145449699015" x1="0" x2="830" class="rv-xy-plot__grid-lines__line" style="stroke-width: 0.5;"/><line y1="209.4419393293202" y2="209.4419393293202" x1="0" x2="830" class="rv-xy-plot__grid-lines__line" style="stroke-width: 0.5;"/><line y1="131.80242416165024" y2="131.80242416165024" x1="0" x2="830" class="rv-xy-plot__grid-lines__line" style="stroke-width: 0.5;"/><line y1="54.162908993980295" y2="54.162908993980295" x1="0" x2="830" class="rv-xy-plot__grid-lines__line" style="stroke-width: 0.5;"/></g><g transform="translate(50,530)" class="rv-xy-plot__axis rv-xy-plot__axis--horizontal"><line x1="0" x2="830" y1="0" y2="0" class="rv-xy-plot__axis__line"/><g transform="translate(0, 0)" class="rv-xy-plot__axis__ticks"/></g><path d="M0,363.34023782551066L2.299168975069252,365.053171994047" class="rv-xy-plot__series rv-xy-plot__series--line" transform="translate(50,10)" style="opacity: 1; stroke-width: 1.5; stroke: rgba(197, 101, 199, 0.1);"/><path d="M0,363.34023782551066L2.299168975069252,364.34365142998695" class="rv-xy-plot__series rv-xy-plot__series--line" transform="translate(50,10)" style="opacity: 1; stroke-width: 1.5; stroke: rgb(197, 101, 199);"/><path d="M0,0L2.299168975069252,343.436067734364L4.598337950138504,342.1050186217671L6.8975069252077565,305.3931858400527L9.196675900277008,285.8670228125902L11.49584487534626,352.74878384682023L13.795013850415513,356.952749579807L16.094182825484765,373.2541260356738L18.393351800554015,436.02751060663275L20.69252077562327,304.8539875756162L22.99168975069252,390.3542022997697L25.290858725761773,388.37937870676825L27.590027700831026,312.91591698319974L29.88919667590028,328.78216234626865L32.18836565096953,349.0540290395907L34.48753462603878,355.48908979171756L36.78670360110803,316.4582361521432L39.08587257617729,350.0221758220604L41.38504155124654,387.85952412685015L43.68421052631579,375.86997526970094L45.98337950138504,366.21846701762956L48.282548476454295,394.6746188646275L50.581717451523545,408.37823104318915L52.8808864265928,403.4537454556225L55.18005540166205,412.9522627483211L57.47922437673131,369.48655012328123L59.77839335180056,409.3568086067364L62.0775623268698,421.7180246118306L64.37673130193906,380.6427563917457L66.67590027700831,305.2318650643802L68.97506925207756,391.2918989759879L71.27423822714681,365.1842370258484L73.57340720221606,375.24160169409953L75.87257617728532,288.97265598969324L78.17174515235457,338.5922240239306L80.47091412742382,364.1541534315141L82.77008310249307,361.18183433661346L85.06925207756234,238.9307662690568L87.36842105263158,385.2419071206972L89.66759002770083,383.10106103348954L91.96675900277008,344.2381550012217L94.26592797783934,309.17273817721406L96.56509695290859,394.7746507030365L98.86426592797784,290.38746603286023L101.16343490304709,256.84075982733214L103.46260387811634,324.54785757124773L105.7617728531856,367.7900442035585L108.06094182825485,237.19679468668784L110.3601108033241,434.06669961571777L112.65927977839335,417.2986961060886L114.95844875346262,376.0844310180146L117.25761772853187,323.7838468202315L119.55678670360112,386.7808591927853L121.85595567867037,409.93722095115396L124.1551246537396,384.62376070844164L126.45429362880886,389.53706583146374L128.75346260387812,421.5339356716054L131.05263157894737,427.05205950080335L133.35180055401662,338.2193259142436L135.65096952908587,405.42613489119407L137.95013850415512,385.84618901648935L140.24930747922437,390.87917508903644L142.54847645429362,410.27759575586606L144.84764542936287,344.22551219114894L147.14681440443212,378.44431425250076L149.4459833795014,377.0971515730395L151.74515235457065,362.44272788526325L154.0443213296399,392.8761652487468L156.34349030470915,396.57659358641166L158.6426592797784,452.51029195080594L160.94182825484765,301.354261534019L163.2409972299169,373.0221591624277L165.54016620498615,198.8851744078426L167.8393351800554,416.5302057649733L170.13850415512468,361.78165515300947L172.4376731301939,361.08783698734607L174.73684210526315,395.26764625306356L177.0360110803324,357.5672864049994L179.33518005540165,366.241957099595L181.6343490304709,357.3782365964001L183.93351800554015,412.3842710855417L186.2326869806094,324.22338346031677L188.53185595567868,342.9549930769971L190.83102493074793,462.8666322367593L193.13019390581718,440.73374575179366L195.42936288088643,353.8119275565132L197.72853185595568,408.76988049490217L200.02770083102493,357.62218914976637L202.32686980609418,385.1920485424672L204.62603878116343,301.60593305048985L206.92520775623268,368.3626357760057L209.22437673130193,410.1948436586034L211.5235457063712,374.0706146293787L213.82271468144043,410.4154542156275L216.1218836565097,375.35270293283577L218.42105263157893,322.91099313623135L220.7202216066482,376.4856505031209L223.01939058171743,293.8069111560304L225.3185595567867,359.54084201485296L227.61772853185596,424.67113885248455L229.91689750692524,401.97644327950417L232.21606648199446,466.492476324811L234.51523545706374,402.0864431314186L236.81440443213296,297.4919108228378L239.11357340720224,341.3634798640574L241.41274238227146,445.65325196028346L243.71191135734074,421.3994924365268L246.01108033240996,414.4449102971338L248.3102493074792,377.6091761256358L250.6094182825485,385.68527547628037L252.9085872576177,386.8724779167315L255.207756232687,337.0245525963112L257.50692520775624,433.686804460339L259.8060941828255,363.2420570573906L262.10526315789474,375.26195421192534L264.404432132964,423.5566094315733L266.70360110803324,429.05115062529154L269.0027700831025,415.8988797322612L271.30193905817174,378.2691659817707L273.601108033241,366.8604829812598L275.90027700831024,349.79586396854666L278.1994459833795,429.9075205283695L280.49861495844874,156.77902663319932L282.797783933518,390.9973474162761L285.09695290858724,433.2583742419867L287.3961218836565,339.25651761848707L289.69529085872574,435.85066860658833L291.994459833795,409.6221410219389L294.29362880886424,418.320033393308L296.5927977839335,358.94307588647763L298.8919667590028,422.6855142643476L301.191135734072,413.2368925712847L303.4903047091413,313.5173297200441L305.7894736842105,374.18362247051243L308.0886426592798,336.75653612918984L310.387811634349,377.3040919759805L312.6869806094183,366.6578833381461L314.9861495844875,454.2544490474392L317.2853185595568,357.3072110294172L319.584487534626,275.05819764988115L321.8836565096953,421.48071740080115L324.1828254847645,413.7086748558016L326.4819944598338,360.5851603397084L328.781163434903,405.0021564968865L331.0803324099723,291.19888269397364L333.3795013850415,397.37766276461053L335.6786703601108,385.8816092464663L337.9778393351801,412.9567423384201L340.27700831024936,423.1936423139859L342.5761772853186,241.2662246310817L344.8753462603878,371.322487912511L347.1745152354571,404.5847494021043L349.4736842105263,426.75518484787904L351.7728531855956,379.62695380468983L354.0720221606648,359.2564435756754L356.3711911357341,396.9886048113019L358.6703601108033,392.09629082535525L360.9695290858726,433.85715845902104L363.2686980609418,347.10557394285377L365.5678670360111,395.5038798433254L367.8670360110803,422.52264784498396L370.1662049861496,458.8481067253086L372.4653739612188,375.75335784150394L374.7645429362881,418.1562784602057L377.06371191135736,427.0324011343359L379.36288088642664,398.82659728855225L381.66204986149586,367.08878473533395L383.96121883656514,335.7109775872409L386.26038781163436,368.2269245577793L388.55955678670364,377.32008522327607L390.85872576177286,361.69543229895527L393.1578947368421,437.4020691263689L395.45706371191136,380.7684625750609L397.7562326869806,396.5624421540535L400.05540166204986,323.00554580658536L402.3545706371191,421.51457347638404L404.65373961218836,402.76704465521965L406.9529085872576,414.83920677935987L409.25207756232686,373.37798114870014L411.5512465373961,367.894296482226L413.85041551246536,406.6919707975151L416.14958448753464,367.86123636686733L418.44875346260386,420.7966728862628L420.74792243767314,369.65560837276115L423.0470914127424,432.9521516841038L425.34626038781164,402.03845413418037L427.64542936288086,311.2227244792939L429.9445983379502,430.91298488786214L432.2437673130194,440.67576097499574L434.54293628808864,436.7172564176607L436.84210526315786,421.4122370554655L439.1412742382272,358.86720051533797L441.4404432132964,425.757087748136L443.73961218836564,362.620597229318L446.03878116343486,384.3527455074524L448.33795013850414,418.1736970316237L450.6371191135734,392.21597177488024L452.93628808864264,440.8580451216894L455.2354570637119,349.82831323071L457.53462603878114,379.72038657751915L459.8337950138505,399.33010691781993L462.1329639889197,433.06417845798444L464.4321329639889,401.60838571862246L466.73130193905814,424.543239150877L469.0304709141275,403.2223524141659L471.3296398891967,431.59210555543217L473.6288088642659,370.9768930895844L475.92797783933514,355.11124932435933L478.2271468144045,420.7833081587774L480.5263157894737,413.4039516648526L482.8254847645429,335.1394596355613L485.12465373961214,399.64864834847504L487.4238227146815,380.8500947747988L489.7229916897507,414.7991125969035L492.0221606648199,357.71270648689074L494.3213296398892,412.10029839253053L496.6204986149584,423.2788841007871L498.91966759002776,396.31201085467615L501.218836565097,400.48086178428366L503.5180055401662,330.7084971530539L505.8171745152354,415.46489630304245L508.11634349030476,445.7619745736985L510.415512465374,286.19323692959273L512.7146814404432,430.6812864198079L515.0138504155125,437.7769016045077L517.3130193905818,395.5747388139822L519.612188365651,434.55612260008735L521.9113573407202,437.49720488386384L524.2105263157895,402.9111874986117L526.5096952908588,396.8380202433047L528.808864265928,412.9991318480345L531.1080332409972,428.98241113011545L533.4072022160665,363.3461242290292L535.7063711911358,426.77401023271653L538.005540166205,373.31589625121245L540.3047091412742,417.27438229784457L542.6038781163435,436.94692796374864L544.9030470914126,440.40897546961656L547.202216066482,437.1831337879562L549.5013850415512,456.2202440451069L551.8005540166205,412.65224127590574L554.0997229916898,344.9538528176992L556.398891966759,423.1546495183515L558.6980609418283,429.9420429892564L560.9972299168975,413.1340008292795L563.2963988919668,395.79239691389563L565.595567867036,415.9014064432054L567.8947368421053,391.73584116336065L570.1939058171745,386.6393911459606L572.4930747922438,388.3139341167063L574.792243767313,430.30037317577023L577.0914127423823,340.0415009958758L579.3905817174515,393.9659273491933L581.6897506925208,370.61029787423087L583.98891966759,428.9794864390591L586.2880886426593,356.64282488134637L588.5872576177285,373.6320868226008L590.8864265927978,282.53535544251685L593.185595567867,431.43607884078574L595.4847645429363,376.20366771067035L597.7839335180056,403.515034392886L600.0831024930748,379.07230835869296L602.382271468144,402.67239017599974L604.6814404432133,469.2152294956944L606.9806094182826,412.1298877510977L609.2797783933518,374.67431343802986L611.578947368421,448.89124591839L613.8781163434903,418.0712310357849L616.1772853185596,352.34043774110194L618.4764542936288,422.6475765787779L620.775623268698,410.2024423021391L623.0747922437673,306.7020406198864L625.3739612188366,391.51310187550445L627.6731301939058,411.4680745907284L629.972299168975,372.3355601708908L632.2714681440443,406.7714094789607L634.5706371191136,414.97443671931114L636.8698060941829,402.28806170727916L639.168975069252,347.69636153624026L641.4681440443213,419.38424146841703L643.7673130193906,429.53681593697473L646.0664819944599,423.09343462389955L648.365650969529,427.51441983755007L650.6648199445983,425.14504986783356L652.9639889196676,399.99027262563214L655.2631578947369,423.587355709071L657.562326869806,430.16580962112295L659.8614958448753,407.36824081684034L662.1606648199446,293.5702333088992L664.4598337950139,424.17246977202217L666.759002770083,335.92862643180285L669.0581717451523,273.5415046980164L671.3573407202216,445.64613459502283L673.6565096952909,426.9921403555536L675.9556786703602,381.14128664193635L678.2548476454293,411.81145738465983L680.5540166204987,452.2270272921803L682.8531855955679,419.638624802861L685.1523545706372,421.6298211125673L687.4515235457063,310.28523142080746L689.7506925207756,349.88540023841784L692.0498614958449,388.7335532404836L694.3490304709142,397.94243356508736L696.6481994459833,419.1725530701852L698.9473684210526,411.4878070000074L701.2465373961219,414.5507452408983L703.5457063711912,426.06907638996864L705.8448753462603,406.40165818876477L708.1440443213296,414.1855938603701L710.4432132963989,402.0152046913525L712.7423822714682,402.0068008322412L715.0415512465374,437.0042648659455L717.3407202216066,469.150358737422L719.639889196676,293.02035436889605L721.9390581717452,432.35901323145043L724.2382271468144,392.09594837735176L726.5373961218836,420.32077197035323L728.836565096953,326.89666215005514L731.1357340720222,423.96531649599797L733.4349030470914,318.4787719259276L735.7340720221606,435.35914465744094L738.0332409972299,362.93163256995194L740.3324099722992,427.9911167136839L742.6315789473684,376.09100231754L744.9307479224376,397.03484454711713L747.2299168975069,402.39888528547203L749.5290858725762,456.8273349400623L751.8282548476454,421.92640884959684L754.1274238227147,385.29904966051373L756.4265927977839,443.86342895962446L758.7257617728533,453.0798338849523L761.0249307479224,391.426499552041L763.3240997229917,410.8987964340982L765.6232686980609,389.56073176510654L767.9224376731303,412.7988367874305L770.2216066481994,414.28765262074535L772.5207756232687,360.2292365445701L774.8199445983379,414.05075264517944L777.1191135734073,436.87518973470463L779.4182825484764,382.460516670739L781.7174515235457,444.48074701792575L784.0166204986149,429.13777145945784L786.3157894736842,465.59591505808663L788.6149584487534,336.94575253411523L790.9141274238227,419.5274495213132L793.213296398892,346.99119630970625L795.5124653739612,361.5046054628786L797.8116343490306,377.9173978394308L800.1108033240997,458.90865523445655L802.409972299169,333.9939618087178L804.7091412742382,423.49445974662547L807.0083102493076,422.2352043951813L809.3074792243767,391.541367718815L811.606648199446,348.7574690686154L813.9058171745152,360.8594519351089L816.2049861495846,399.01546199012273L818.5041551246537,367.3986353909831L820.803324099723,456.4836559748847L823.1024930747922,425.17522231354167L825.4016620498616,425.0646486298378L827.7008310249307,330.3511665444961L830,403.38867107961823" class="rv-xy-plot__series rv-xy-plot__series--line" transform="translate(50,10)" style="opacity: 1; stroke-width: 1.5; stroke: rgba(237, 183, 50, 0.1);"/><path d="M0,0L2.299168975069252,201.18019067070546L4.598337950138504,265.03067092490505L6.8975069252077565,280.7932134754432L9.196675900277008,282.5984154660965L11.49584487534626,306.08020654721605L13.795013850415513,322.4251302212426L16.094182825484765,338.3050962939298L18.393351800554015,368.2507522989642L20.69252077562327,349.0832865109068L22.99168975069252,361.444402534796L25.290858725761773,369.4586977674793L27.590027700831026,352.71268161574017L29.88919667590028,345.6484051390532L32.18836565096953,346.65143026871596L34.48753462603878,349.2500717564969L36.78670360110803,339.61896304475323L39.08587257617729,342.67195639874444L41.38504155124654,355.92539245650846L43.68421052631579,361.77273581080027L45.98337950138504,363.07576011648956L48.282548476454295,372.33537286134884L50.581717451523545,382.8957277513372L52.8808864265928,388.918502133071L55.18005540166205,395.9590430730281L57.47922437673131,388.20448280136463L59.77839335180056,394.40039040247194L62.0775623268698,402.40202859765697L64.37673130193906,396.0286102558643L66.67590027700831,369.43404769730506L68.97506925207756,375.8362022679513L71.27423822714681,372.71626627505754L73.57340720221606,373.45592787517216L75.87257617728532,348.71116164915804L78.17174515235457,345.74737744811966L80.47091412742382,351.1386178798243L82.77008310249307,354.0802158097548L85.06925207756234,320.3536585608797L87.36842105263158,339.35901217723637L89.66759002770083,352.17077388248777L91.96675900277008,349.84736203794154L94.26592797783934,337.93403485062953L96.56509695290859,354.5822714003456L98.86426592797784,335.78004374235934L101.16343490304709,312.6592588877852L103.46260387811634,316.1413492384634L105.7617728531856,331.2689030294617L108.06094182825485,303.71581877408704L110.3601108033241,341.894709448081L112.65927977839335,363.98002646990517L114.95844875346262,367.52532455453274L117.25761772853187,354.7137421543688L119.55678670360112,364.10598338078165L121.85595567867037,377.52964217498607L124.1551246537396,379.6074613978408L126.45429362880886,382.5157752127832L128.75346260387812,393.9439298518512L131.05263157894737,403.64107653168827L133.35180055401662,384.47948938769633L135.65096952908587,390.6146198182739L137.95013850415512,389.2179787711302L140.24930747922437,389.70453190798946L142.54847645429362,395.73024280123275L144.84764542936287,380.64485646521325L147.14681440443212,380.0003325732909L149.4459833795014,379.15001054523026L151.74515235457065,374.2565607489235L154.0443213296399,379.71011664422764L156.34349030470915,384.65019336607014L158.6426592797784,404.5259560701301L160.94182825484765,374.30766636638833L163.2409972299169,373.93115002360696L165.54016620498615,322.66137078463703L167.8393351800554,350.15491600849657L170.13850415512468,353.5603090608549L172.4376731301939,355.76507094496105L174.73684210526315,367.3351073784018L177.0360110803324,364.4741788527032L179.33518005540165,364.99194911358444L181.6343490304709,362.76194434730394L183.93351800554015,377.29598735068856L186.2326869806094,361.7513815664192L188.53185595567868,356.2460468396825L190.83102493074793,387.47449328841395L193.13019390581718,403.07376717401405L195.42936288088643,388.64530840377057L197.72853185595568,394.53965910078597L200.02770083102493,383.7267824963823L202.32686980609418,384.1559489850382L204.62603878116343,359.97760910486585L206.92520775623268,362.4335265564127L209.22437673130193,376.4224924572435L211.5235457063712,375.7336433899842L213.82271468144043,385.8917105969862L216.1218836565097,382.8049067191335L218.42105263157893,365.2623855825025L220.7202216066482,368.5496037706985L223.01939058171743,346.65797594800387L225.3185595567867,350.43128005786593L227.61772853185596,372.175631264478L229.91689750692524,380.9040870188136L232.21606648199446,405.97234585570607L234.51523545706374,404.83419129879354L236.81440443213296,373.3943652554144L239.11357340720224,364.012736131695L241.41274238227146,387.9246895983209L243.71191135734074,397.72923235074876L246.01108033240996,402.6251410691145L248.3102493074792,395.29813457509454L250.6094182825485,392.48259333164265L252.9085872576177,390.83942856985436L255.207756232687,375.0774163259166L257.50692520775624,392.2437086692945L259.8060941828255,383.7493215777776L262.10526315789474,381.2634292307409L264.404432132964,393.6508149136201L266.70360110803324,404.01933318728834L269.0027700831025,407.4987718128897L271.30193905817174,398.9376184763648L273.601108033241,389.5424430108882L275.90027700831024,377.9009395383535L278.1994459833795,393.1333144440018L280.49861495844874,323.9067463067347L282.797783933518,343.55712841783765L285.09695290858724,369.8300150388494L287.3961218836565,360.8752449690147L289.69529085872574,382.8350381301258L291.994459833795,390.6807989187961L294.29362880886424,398.77614326957564L296.5927977839335,387.10930794852686L298.8919667590028,397.5293375295391L301.191135734072,402.1299738854055L303.4903047091413,376.17593130824173L305.7894736842105,375.5923975598887L308.0886426592798,364.2176371000581L310.387811634349,368.050570991524L312.6869806094183,367.6426622219244L314.9861495844875,393.010667252434L317.2853185595568,382.5533670365094L319.584487534626,351.0687608679625L321.8836565096953,371.6919454598186L324.1828254847645,383.99836057662185L326.4819944598338,377.1407929965084L328.781163434903,385.30119743266584L331.0803324099723,357.7392675710537L333.3795013850415,369.3490847278942L335.6786703601108,374.19134904925113L337.9778393351801,385.5454698682852L340.27700831024936,396.57236427835045L342.5761772853186,351.08424913557036L344.8753462603878,357.0118920340637L347.1745152354571,370.9456593567424L349.4736842105263,387.29189091829284L351.7728531855956,385.046882815087L354.0720221606648,377.493038051643L356.3711911357341,383.20315735247203L358.6703601108033,385.8078958406824L360.9695290858726,399.88119903058055L363.2686980609418,384.4235763237442L365.5678670360111,387.6689220870243L367.8670360110803,397.8773420119145L370.1662049861496,415.73526554233814L372.4653739612188,404.0248359015385L374.7645429362881,408.16383959902396L377.06371191135736,413.69031332148114L379.36288088642664,409.3368316890674L381.66204986149586,396.9626652282066L383.96121883656514,379.022461277288L386.26038781163436,375.86052177869226L388.55955678670364,376.28801801403887L390.85872576177286,372.0139486131368L393.1578947368421,391.1656857024193L395.45706371191136,388.1204095539256L397.7562326869806,390.59302365550514L400.05540166204986,370.7971097168521L402.3545706371191,385.65191092743606L404.65373961218836,390.66481753538926L406.9529085872576,397.7453322139051L409.25207756232686,390.6083003264598L411.5512465373961,383.955522628381L413.85041551246536,390.61487411702393L416.14958448753464,383.9504879166653L418.44875346260386,394.7424856334066L420.74792243767314,387.39470940255814L423.0470914127424,400.7381753133081L425.34626038781164,401.1190181625083L427.64542936288086,374.7890033462323L429.9445983379502,391.22733695258705L432.2437673130194,405.7104450297628L434.54293628808864,414.7921298223058L436.84210526315786,416.73111433871617L439.1412742382272,399.7831663658427L441.4404432132964,407.3907518047102L443.73961218836564,394.2778771243477L446.03878116343486,391.3708733779281L448.33795013850414,399.22123867114834L450.6371191135734,397.16944350125306L452.93628808864264,409.96553865532127L455.2354570637119,392.35175313019664L457.53462603878114,388.65211152257035L459.8337950138505,391.7796239643602L462.1329639889197,403.8715900172772L464.4321329639889,403.2087128254118L466.73130193905814,409.45745091273767L469.0304709141275,407.63123284387206L471.3296398891967,414.6492099779403L473.6288088642659,401.8578845114686L475.92797783933514,388.166112062818L478.2271468144045,397.7194676160331L480.5263157894737,402.3133466345201L482.8254847645429,382.6385706511839L485.12465373961214,387.62070706021046L487.4238227146815,385.6376406345983L489.7229916897507,394.17883802297615L492.0221606648199,383.4981553796973L494.3213296398892,391.87552911168876L496.6204986149584,401.0733588359872L498.91966759002776,399.6787922998501L501.218836565097,399.9137130128579L503.5180055401662,379.6439745810001L505.8171745152354,390.1356796450338L508.11634349030476,406.4282442173568L510.415512465374,371.21222591878467L512.7146814404432,388.6303104687413L515.0138504155125,403.02501374020466L517.3130193905818,400.8428787360182L519.612188365651,410.7172592480083L521.9113573407202,418.5609237249433L524.2105263157895,413.9772221080315L526.5096952908588,408.95726610597814L528.808864265928,410.1411011731809L531.1080332409972,415.6595930931294L533.4072022160665,400.33733281022575L535.7063711911358,408.08045635523206L538.005540166205,397.898152445732L540.3047091412742,403.5733187755866L542.6038781163435,413.34822259412954L544.9030470914126,421.27413360734636L547.202216066482,425.933771878349L549.5013850415512,434.8044741977747L551.8005540166205,428.31623539338324L554.0997229916898,403.8999588328326L556.398891966759,409.5395271649717L558.6980609418283,415.51528569663884L560.9972299168975,414.8178235069262L563.2963988919668,409.2454050727944L565.595567867036,411.19490273860083L567.8947368421053,405.4954755587396L570.1939058171745,399.9726563008626L572.4930747922438,396.55789563309327L574.792243767313,406.44083849130857L577.0914127423823,386.99292280519046L579.3905817174515,389.03526855088427L581.6897506925208,383.63871958285586L583.98891966759,396.91872273083953L586.2880886426593,385.12218536909967L588.5872576177285,381.75681342133186L590.8864265927978,352.69552121855304L593.185595567867,375.7580965916949L595.4847645429363,375.8886013509419L597.7839335180056,383.98019624893124L600.0831024930748,382.5427091671838L602.382271468144,388.4385562315439L604.6814404432133,412.0974960689235L606.9806094182826,412.1069833729783L609.2797783933518,401.14320818694966L611.578947368421,415.12828465013746L613.8781163434903,415.9902536898251L616.1772853185596,397.3476542197198L618.4764542936288,404.7578299151947L620.775623268698,406.35251996239845L623.0747922437673,377.16557031146664L625.3739612188366,381.36786501328527L627.6731301939058,390.1840122833821L629.972299168975,384.95632169331674L632.2714681440443,391.34581297355203L634.5706371191136,398.2664766385794L636.8698060941829,399.4443716340829L639.168975069252,384.2877303893348L641.4681440443213,394.5672604884092L643.7673130193906,404.8096061442151L646.0664819944599,410.1648155198629L648.365650969529,415.24639697361005L650.6648199445983,418.14564528171627L652.9639889196676,412.82805974571806L655.2631578947369,415.9793845725911L657.562326869806,420.1344922685114L659.8614958448753,416.39534378864954L662.1606648199446,380.4207018291175L664.4598337950139,393.2352979706941L666.759002770083,376.45056248418297L669.0581717451523,346.3091973041331L671.3573407202216,375.40431261433184L673.6565096952909,390.5140375330522L675.9556786703602,387.76882235541666L678.2548476454293,394.8107471178887L680.5540166204987,411.62758623043203L682.8531855955679,413.97396510394947L685.1523545706372,416.21631341308586L687.4515235457063,385.1898178359757L689.7506925207756,374.84939332749275L692.0498614958449,378.9159696149293L694.3490304709142,384.48869188392916L696.6481994459833,394.6473596276507L698.9473684210526,399.5798124647988L701.2465373961219,403.96469715423035L703.5457063711912,410.438919938459L705.8448753462603,409.25643334939866L708.1440443213296,410.7001510375052L710.4432132963989,408.1563891469584L712.7423822714682,406.3552164310833L715.0415512465374,415.3321148807395L717.3407202216066,431.09511355481055L719.639889196676,390.65395289995575L721.9390581717452,402.86908226125644L724.2382271468144,399.71370440129135L726.5373961218836,405.7493747519002L728.836565096953,382.6539499457737L731.1357340720222,394.75376906825124L733.4349030470914,372.4133396402492L735.7340720221606,390.8497390825385L738.0332409972299,382.67271500289024L740.3324099722992,395.9461675514456L742.6315789473684,390.130724296014L744.9307479224376,392.15289429943476L747.2299168975069,395.15387557926886L749.5290858725762,413.2176136068123L751.8282548476454,415.76836067745876L754.1274238227147,406.8441060986775L756.4265927977839,417.68681472971474L758.7257617728533,428.05319003361836L761.0249307479224,417.3254807639852L763.3240997229917,415.4431485043066L765.6232686980609,407.8623641548911L767.9224376731303,409.30822351382005L770.2216066481994,410.76666453280086L772.5207756232687,395.9645945787749L774.8199445983379,401.261907630813L777.1191135734073,411.6927964587333L779.4182825484764,403.1308599383722L781.7174515235457,415.2419614626755L784.0166204986149,419.3119499806532L786.3157894736842,432.86820949163206L788.6149584487534,404.77317231685015L790.9141274238227,409.0946000585312L793.213296398892,390.90493423526647L795.5124653739612,382.293777306948L797.8116343490306,381.0119654379578L800.1108033240997,403.82737764736737L802.409972299169,383.3736437016469L804.7091412742382,395.1247586544832L807.0083102493076,403.06522437094367L809.3074792243767,399.6899649029569L811.606648199446,384.7721822558339L813.9058171745152,377.7683057015787L816.2049861495846,383.9914536975628L818.5041551246537,379.1315297345619L820.803324099723,401.7874429711546L823.1024930747922,408.6375649436451L825.4016620498616,413.448946360212L827.7008310249307,389.11017015373545L830,393.29224624974813" class="rv-xy-plot__series rv-xy-plot__series--line" transform="translate(50,10)" style="opacity: 1; stroke-width: 1.5; stroke: rgb(237, 183, 50);"/><path d="M0,64.87938425997913L2.299168975069252,346.98455096736933L4.598337950138504,330.7010373397899L6.8975069252077565,319.16033600627884L9.196675900277008,297.03323411596585L11.49584487534626,360.43592705302206L13.795013850415513,354.9916146515916L16.094182825484765,375.88344180605225L18.393351800554015,439.9401826636161L20.69252077562327,297.7831767327869L22.99168975069252,382.56813789733224L25.290858725761773,387.9133069740924L27.590027700831026,305.2885263259217L29.88919667590028,341.63094101009204L32.18836565096953,351.30361625091626L34.48753462603878,366.2555439555151L36.78670360110803,320.2185188475977L39.08587257617729,346.5746129412026L41.38504155124654,381.2596533315563L43.68421052631579,386.0060289359308L45.98337950138504,381.9705198545799L48.282548476454295,398.4201855512858L50.581717451523545,424.9947522157311L52.8808864265928,407.43696180131354L55.18005540166205,412.0326695395277L57.47922437673131,365.57073124680693L59.77839335180056,412.8869847545851L62.0775623268698,414.1782821327291L64.37673130193906,376.1554750957003L66.67590027700831,298.34432869084907L68.97506925207756,391.85256965577497L71.27423822714681,347.8600516818825L73.57340720221606,380.36773362358116L75.87257617728532,277.2463108169144L78.17174515235457,335.7573654086793L80.47091412742382,361.3003583672079L82.77008310249307,348.7323685554988L85.06925207756234,243.03668080884364L87.36842105263158,378.32967746951283L89.66759002770083,394.9149525755792L91.96675900277008,333.8244407916657L94.26592797783934,314.9718822423125L96.56509695290859,391.66538017281596L98.86426592797784,284.495398239262L101.16343490304709,259.60979438311233L103.46260387811634,328.10283806096686L105.7617728531856,356.25567353043533L108.06094182825485,235.14890009403436L110.3601108033241,427.4342777493947L112.65927977839335,413.40002739584025L114.95844875346262,370.68558090287803L117.25761772853187,327.19392552774013L119.55678670360112,388.17640884959684L121.85595567867037,420.8227729773355L124.1551246537396,385.12545628882623L126.45429362880886,386.2515826650969L128.75346260387812,412.92420977809365L131.05263157894737,426.1857030735171L133.35180055401662,347.3376426249657L135.65096952908587,401.43787437896594L137.95013850415512,380.3385977772348L140.24930747922437,390.59226844961756L142.54847645429362,400.10071673441587L144.84764542936287,343.63850078115166L147.14681440443212,388.84069318880177L149.4459833795014,380.12626150440184L151.74515235457065,358.5145160932051L154.0443213296399,397.45892475029063L156.34349030470915,393.7786360573684L158.6426592797784,453.96127190741686L160.94182825484765,299.1654634709789L163.2409972299169,359.4830145790296L165.54016620498615,196.3393974395996L167.8393351800554,406.30729988079105L170.13850415512468,353.4192785268442L172.4376731301939,363.6654523645572L174.73684210526315,393.4675822060315L177.0360110803324,353.1403777664246L179.33518005540165,363.864534974122L181.6343490304709,359.87138763633135L183.93351800554015,414.1690452919878L186.2326869806094,315.35166633347404L188.53185595567868,339.16518581043556L190.83102493074793,460.00847790192284L193.13019390581718,445.13339275268964L195.42936288088643,353.7260564058139L197.72853185595568,406.47298918234526L200.02770083102493,346.75444441976356L202.32686980609418,391.8063299199597L204.62603878116343,297.2130470838239L206.92520775623268,378.8654605092664L209.22437673130193,405.73779959572624L211.5235457063712,370.3425590676529L213.82271468144043,414.16313112241494L216.1218836565097,381.72770570944124L218.42105263157893,318.1919115632659L220.7202216066482,388.1973259438608L223.01939058171743,299.31243845191295L225.3185595567867,356.4367637367926L227.61772853185596,415.9542267338976L229.91689750692524,404.3916179835181L232.21606648199446,460.33597851277614L234.51523545706374,415.5807177710152L236.81440443213296,298.469738702918L239.11357340720224,340.32869455118947L241.41274238227146,449.03117294919923L243.71191135734074,422.2439599576475L246.01108033240996,417.3638630356072L248.3102493074792,373.31556305856043L250.6094182825485,393.706786764107L252.9085872576177,385.77198886396116L255.207756232687,341.53833196354134L257.50692520775624,428.7277131137223L259.8060941828255,364.34462856423585L262.10526315789474,387.3239261941255L264.404432132964,418.06626091205936L266.70360110803324,425.75202507089597L269.0027700831025,413.74261422954754L271.30193905817174,372.818578452061L273.601108033241,361.9466040264481L275.90027700831024,354.9470408790363L278.1994459833795,429.7132877229614L280.49861495844874,149.65873668154927L282.797783933518,384.429037369407L285.09695290858724,437.4942431714017L287.3961218836565,335.39496286753L289.69529085872574,432.0551878095915L291.994459833795,407.71507585686044L294.29362880886424,415.76168765780375L296.5927977839335,363.1547790932717L298.8919667590028,420.89365971404663L301.191135734072,410.6606099646816L303.4903047091413,309.3856853032423L305.7894736842105,372.41793279874423L308.0886426592798,340.33624691796797L310.387811634349,380.2276261134188L312.6869806094183,364.06369162649844L314.9861495844875,453.2978112944905L317.2853185595568,352.9581398964881L319.584487534626,277.3746640307425L321.8836565096953,411.70890809065804L324.1828254847645,413.3967787674834L326.4819944598338,360.29598613918563L328.781163434903,401.4446307855202L331.0803324099723,279.3435734541712L333.3795013850415,399.6593382793931L335.6786703601108,388.84945800661944L337.9778393351801,418.20773821423546L340.27700831024936,425.8638204609905L342.5761772853186,255.03857630481946L344.8753462603878,367.24818965325755L347.1745152354571,406.4073872513087L349.4736842105263,428.95630178369134L351.7728531855956,382.2471345431929L354.0720221606648,374.88943557164754L356.3711911357341,395.5141625387799L358.6703601108033,401.34215553432995L360.9695290858726,435.5974329357234L363.2686980609418,346.0731950213613L365.5678670360111,391.2256214042959L367.8670360110803,424.78335998874553L370.1662049861496,457.74207834469894L372.4653739612188,364.9535473911015L374.7645429362881,425.5225941639456L377.06371191135736,427.0372046617355L379.36288088642664,404.87872713002656L381.66204986149586,363.93733756858217L383.96121883656514,331.7641070066713L386.26038781163436,361.7569988967621L388.55955678670364,370.1068715431262L390.85872576177286,356.8696365238381L393.1578947368421,433.4978286945512L395.45706371191136,390.5555247043841L397.7562326869806,401.08840156378415L400.05540166204986,315.3280836979942L402.3545706371191,421.86667481137596L404.65373961218836,399.49543526066776L406.9529085872576,409.2275483684666L409.25207756232686,368.144783313712L411.5512465373961,369.1901660039835L413.85041551246536,399.85179405732396L416.14958448753464,362.9804452934687L418.44875346260386,411.8744030298319L420.74792243767314,384.048910830242L423.0470914127424,431.16766439355234L425.34626038781164,400.5296282310432L427.64542936288086,316.7300288026537L429.9445983379502,426.35013364727484L432.2437673130194,440.32292846723976L434.54293628808864,426.36735785631254L436.84210526315786,422.78145523741824L439.1412742382272,357.8119053436697L441.4404432132964,427.0613611290048L443.73961218836564,370.6554084571699L446.03878116343486,391.2950828168847L448.33795013850414,419.7763536877022L450.6371191135734,396.40822023293873L452.93628808864264,433.9640577682016L455.2354570637119,354.2461516248695L457.53462603878114,381.339156800462L459.8337950138505,389.5629715601561L462.1329639889197,441.01456236996233L464.4321329639889,401.93543281725493L466.73130193905814,427.8512590980105L469.0304709141275,403.4963478383201L471.3296398891967,427.25107732290815L473.6288088642659,377.1193551611542L475.92797783933514,357.84331800647135L478.2271468144045,418.72576948991906L480.5263157894737,399.44045847308917L482.8254847645429,337.89305626513254L485.12465373961214,404.7647104555854L487.4238227146815,376.35324344536014L489.7229916897507,417.46269167832844L492.0221606648199,363.2538113537247L494.3213296398892,414.5952357152905L496.6204986149584,421.15384615384613L498.91966759002776,390.84583731313444L501.218836565097,397.34998926379234L503.5180055401662,337.49848212236316L505.8171745152354,424.85169224845805L508.11634349030476,452.2477453963882L510.415512465374,284.3067186447204L512.7146814404432,429.6503143117351L515.0138504155125,435.0089776909009L517.3130193905818,389.34944134698685L519.612188365651,425.75344113966696L521.9113573407202,435.14178272877376L524.2105263157895,399.72652287552665L526.5096952908588,399.99145731061697L528.808864265928,408.0613648311454L531.1080332409972,426.389765062159L533.4072022160665,358.3923824755473L535.7063711911358,430.0359755510636L538.005540166205,373.68516626313334L540.3047091412742,410.8275857600865L542.6038781163435,435.0781984643521L544.9030470914126,445.34094400882594L547.202216066482,438.4738943557165L549.5013850415512,457.2550478686777L551.8005540166205,418.27806962985994L554.0997229916898,338.9537380513413L556.398891966759,427.0435445774747L558.6980609418283,416.5024767320465L560.9972299168975,406.5672734475073L563.2963988919668,392.0562336643047L565.595567867036,412.8287963600554L567.8947368421053,377.863105947859L570.1939058171745,383.59371413551315L572.4930747922438,387.23700918871293L574.792243767313,434.024698830864L577.0914127423823,338.5141088577415L579.3905817174515,386.1083561014979L581.6897506925208,358.27326610246047L583.98891966759,435.76711129375L586.2880886426593,344.6642713817129L588.5872576177285,367.87000118468495L590.8864265927978,285.1434394366823L593.185595567867,427.7505053421889L595.4847645429363,367.84284598354765L597.7839335180056,393.820423969139L600.0831024930748,383.87389213443214L602.382271468144,410.7437230206505L604.6814404432133,464.2677813811946L606.9806094182826,418.89867796559975L609.2797783933518,381.5930310905766L611.578947368421,448.57979408694104L613.8781163434903,417.01183574342684L616.1772853185596,356.52970597599534L618.4764542936288,420.4986783358138L620.775623268698,407.2423310157933L623.0747922437673,329.9520387688161L625.3739612188366,390.9180197990478L627.6731301939058,414.84098380683713L629.972299168975,379.55679824074275L632.2714681440443,413.21101460864674L634.5706371191136,412.23729610460765L636.8698060941829,400.77006375086074L639.168975069252,355.6313815648208L641.4681440443213,423.56201455681673L643.7673130193906,427.3373649644224L646.0664819944599,425.3901778508333L648.365650969529,424.35666977646474L650.6648199445983,420.60877074124255L652.9639889196676,381.6684992262526L655.2631578947369,419.14176977128176L657.562326869806,429.059202781048L659.8614958448753,406.8605200026655L662.1606648199446,300.65387206883025L664.4598337950139,410.4795938011358L666.759002770083,328.81727714964796L669.0581717451523,265.07372812960455L671.3573407202216,447.1775805770897L673.6565096952909,424.1962375145309L675.9556786703602,381.5220980771082L678.2548476454293,410.60978882990145L680.5540166204987,450.13320301798495L682.8531855955679,417.26654301517135L685.1523545706372,411.02401208378683L687.4515235457063,301.13083735015584L689.7506925207756,337.9288559645187L692.0498614958449,388.5245581495221L694.3490304709142,406.0876611356686L696.6481994459833,429.18474236803723L698.9473684210526,406.0782947200071L701.2465373961219,417.6113603885767L703.5457063711912,437.02825473688887L705.8448753462603,406.0048072295401L708.1440443213296,413.6252933946408L710.4432132963989,402.3756173319413L712.7423822714682,407.6301950287656L715.0415512465374,441.2437804038295L717.3407202216066,474.58419408101764L719.639889196676,273.9850211392227L721.9390581717452,427.6874208667452L724.2382271468144,402.711086800388L726.5373961218836,423.459298666489L728.836565096953,323.7647807962564L731.1357340720222,416.86686917375624L733.4349030470914,324.86015163967807L735.7340720221606,428.58769815707444L738.0332409972299,366.3433679853692L740.3324099722992,429.8213439510725L742.6315789473684,375.13776590624695L744.9307479224376,388.2504053843933L747.2299168975069,401.5959742923358L749.5290858725762,459.62089154949393L751.8282548476454,428.075192326203L754.1274238227147,383.3280022509015L756.4265927977839,441.47564546820973L758.7257617728533,455.70997338160925L761.0249307479224,388.3037717408205L763.3240997229917,417.70185921499814L765.6232686980609,392.4624232731365L767.9224376731303,415.5261297081973L770.2216066481994,422.76095463396933L772.5207756232687,368.2447873860666L774.8199445983379,424.8136157326166L777.1191135734073,441.18907202144277L779.4182825484764,382.0954856097796L781.7174515235457,440.0179091050445L784.0166204986149,421.5387762204106L786.3157894736842,470.88245148344777L788.6149584487534,327.54096418549204L790.9141274238227,427.4963348808281L793.213296398892,345.86987346083504L795.5124653739612,361.7761574742516L797.8116343490306,378.12837357560136L800.1108033240997,463.955690930496L802.409972299169,338.8482270448773L804.7091412742382,422.8022149907076L807.0083102493076,415.34790866078765L809.3074792243767,377.9475240083816L811.606648199446,350.2783269286301L813.9058171745152,353.9643631947992L816.2049861495846,397.5467302694418L818.5041551246537,373.05251671516476L820.803324099723,450.8757830027322L823.1024930747922,428.9491936737822L825.4016620498616,415.2241553566272L827.7008310249307,332.80838831012096L830,405.8317136468306" class="rv-xy-plot__series rv-xy-plot__series--line" transform="translate(50,10)" style="opacity: 1; stroke-width: 1.5; stroke: rgba(71, 154, 95, 0.1);"/><path d="M0,64.87938425997913L2.299168975069252,230.13276490164534L4.598337950138504,275.6984227553532L6.8975069252077565,292.671355645826L9.196675900277008,294.22326096470266L11.49584487534626,316.386964846792L13.795013850415513,328.7903167711834L16.094182825484765,343.50312421166035L18.393351800554015,373.05490103635816L20.69252077562327,350.29714349632025L22.99168975069252,359.9626791010531L25.290858725761773,368.27917369466985L27.590027700831026,349.62352245830846L29.88919667590028,347.2641166937762L32.18836565096953,348.45383102671633L34.48753462603878,353.6882790895708L36.78670360110803,343.85806088112014L39.08587257617729,344.6552776220191L41.38504155124654,355.39127819234807L43.68421052631579,364.3668963328979L45.98337950138504,369.526441129875L48.282548476454295,377.9933571733846L50.581717451523545,391.7645017776101L52.8808864265928,396.3559800070424L55.18005540166205,400.94836886467397L57.47922437673131,390.58523367761023L59.77839335180056,397.11782920810924L62.0775623268698,402.1150251842538L64.37673130193906,394.5113208363608L66.67590027700831,366.3438013587776L68.97506925207756,373.8153078422831L71.27423822714681,366.2130733194427L73.57340720221606,370.3589220691544L75.87257617728532,343.08666157652505L78.17174515235457,340.93994884920903L80.47091412742382,346.90339747804694L82.77008310249307,347.43909214902044L85.06925207756234,316.86027551524586L87.36842105263158,334.8642707941422L89.66759002770083,352.45272504670675L91.96675900277008,346.9966232309559L94.26592797783934,337.6167892884717L96.56509695290859,353.4472603825545L98.86426592797784,333.2517227212326L101.16343490304709,311.68249765435155L103.46260387811634,316.4919045833837L105.7617728531856,328.1384438441699L108.06094182825485,300.90243543580567L110.3601108033241,337.9627555754047L112.65927977839335,360.05782159588165L114.95844875346262,363.17062029367975L117.25761772853187,352.6332902043962L119.55678670360112,363.04362874074815L121.85595567867037,379.966748402576L124.1551246537396,381.4776989682584L126.45429362880886,382.8759371356754L128.75346260387812,391.67687245288073L131.05263157894737,401.7842749496736L133.35180055401662,385.8372255335337L135.65096952908587,390.40654979370623L137.95013850415512,387.45771491880055L140.24930747922437,388.3758043924121L142.54847645429362,391.80995170969794L144.84764542936287,377.7008603890368L147.14681440443212,380.9636418753408L149.4459833795014,380.71837884309673L151.74515235457065,374.2150180116535L154.0443213296399,381.023000674529L156.34349030470915,384.7590397799733L158.6426592797784,405.0279042974459L160.94182825484765,374.02151325169524L163.2409972299169,369.7632855786811L165.54016620498615,318.9686047619587L167.8393351800554,344.54951630246643L170.13850415512468,347.14740951048776L172.4376731301939,351.9854322505323L174.73684210526315,364.135272674332L177.0360110803324,360.91494251423353L179.33518005540165,361.7788581439993L181.6343490304709,361.2201729672162L183.93351800554015,376.72853861497106L186.2326869806094,358.751668931733L188.53185595567868,353.01492084509897L190.83102493074793,384.3526081637801L193.13019390581718,402.1548878040357L195.42936288088643,387.97041149243495L197.72853185595568,393.38969102837916L200.02770083102493,379.7305435390218L202.32686980609418,383.2674594818385L204.62603878116343,358.062705641483L206.92520775623268,364.15569147489543L209.22437673130193,376.33480896745476L211.5235457063712,374.57971960636723L213.82271468144043,386.17343241692004L216.1218836565097,384.8713092116016L218.42105263157893,365.3413658058383L220.7202216066482,372.0357215397357L223.01939058171743,350.7355650734613L225.3185595567867,352.4054075010594L227.61772853185596,371.0184257179596L229.91689750692524,380.7932074226992L232.21606648199446,404.0907456806135L234.51523545706374,407.45608059024795L236.81440443213296,375.53472010816444L239.11357340720224,365.2231139611534L241.41274238227146,389.7699261206698L243.71191135734074,399.2813504190392L246.01108033240996,404.5775957435406L248.3102493074792,395.4211583637854L250.6094182825485,394.91903054771325L252.9085872576177,392.23992406633823L255.207756232687,377.3897715563833L257.50692520775624,392.42630650636926L259.8060941828255,384.20137346421507L262.10526315789474,385.11594798419327L264.404432132964,394.7668711985465L266.70360110803324,403.84221265164905L269.0027700831025,406.7419731373455L271.30193905817174,396.80604087489337L273.601108033241,386.59594821032795L275.90027700831024,377.32619787013726L278.1994459833795,392.6700212414005L280.49861495844874,321.49366389867384L282.797783933518,339.9270080117436L285.09695290858724,368.50378956838495L287.3961218836565,358.8064387448348L289.69529085872574,380.2605006324702L291.994459833795,388.3017595410979L294.29362880886424,396.34458627558587L296.5927977839335,386.62351681816006L298.8919667590028,396.6610092801332L301.191135734072,400.7613973867337L303.4903047091413,373.99807095322853L305.7894736842105,373.5352592029917L308.0886426592798,363.81149363340376L310.387811634349,368.61966751594343L312.6869806094183,367.2852530728474L314.9861495844875,392.47774810876393L317.2853185595568,380.90272285322396L319.584487534626,350.5800564671989L321.8836565096953,368.4842825815638L324.1828254847645,381.6388481544047L326.4819944598338,375.3876686000758L328.781163434903,383.01957612707105L331.0803324099723,352.65357799049326L333.3795013850415,366.42124642428274L335.6786703601108,372.9903175068624L337.9778393351801,386.234193404287L340.27700831024936,397.8414424333016L342.5761772853186,356.01545131714397L344.8753462603878,359.3054442044975L347.1745152354571,373.1012839158459L349.4736842105263,389.4608398860421L351.7728531855956,387.3479945086032L354.0720221606648,383.6989670797811L356.3711911357341,387.1595577086774L358.6703601108033,391.3135444369694L360.9695290858726,404.2839950809455L363.2686980609418,387.23444648178764L365.5678670360111,388.4034345516886L367.8670360110803,399.0588680131416L370.1662049861496,416.2467823774582L372.4653739612188,401.22334167894945L374.7645429362881,408.3404279540407L377.06371191135736,413.8165870653938L379.36288088642664,411.1987484996203L381.66204986149586,397.3562017263632L383.96121883656514,378.14472197519586L386.26038781163436,373.3448690137298L388.55955678670364,372.39648151205495L390.85872576177286,367.84877390543863L393.1578947368421,387.0769368746825L395.45706371191136,388.0957916610491L397.7562326869806,391.9012389962487L400.05540166204986,369.47348106624054L402.3545706371191,384.8190922261701L404.65373961218836,389.1176935779545L406.9529085872576,395.00773367741874L409.25207756232686,387.13975767856664L411.5512465373961,381.88244399661085L413.85041551246536,387.1455447758788L416.14958448753464,380.0677510055284L418.44875346260386,389.38370369660606L420.74792243767314,387.8211790422736L423.0470914127424,400.51707066105985L425.34626038781164,400.52074868815276L427.64542936288086,375.97901503419257L429.9445983379502,390.73237410001246L432.2437673130194,405.25711119137316L434.54293628808864,411.4401592870132L436.84210526315786,414.76194796344333L439.1412742382272,398.08166666897455L441.4404432132964,406.56962265960317L443.73961218836564,396.05059286069667L446.03878116343486,394.65773621686486L448.33795013850414,402.0148089400423L450.6371191135734,400.37267712705557L452.93628808864264,410.2113647274287L455.2354570637119,393.8195333202393L457.53462603878114,390.16411566935795L459.8337950138505,389.98804463624305L462.1329639889197,404.93336566011385L464.4321329639889,404.0552914599823L466.73130193905814,411.0249690162651L469.0304709141275,408.8198869262297L471.3296398891967,414.21825760807644L473.6288088642659,403.35224065595105L475.92797783933514,390.0229858164126L478.2271468144045,398.4298365154521L480.5263157894737,398.72584083362796L482.8254847645429,380.908330751976L485.12465373961214,387.89570259260205L487.4238227146815,384.5149945799436L489.7229916897507,394.16515163558023L492.0221606648199,385.1114296825896L494.3213296398892,393.7470365343789L496.6204986149584,401.7743052212321L498.91966759002776,398.5734310789299L501.218836565097,398.21509326766324L503.5180055401662,380.43160959387154L505.8171745152354,393.441950582533L508.11634349030476,410.6657691104465L510.415512465374,373.6560600933285L512.7146814404432,390.05639744641627L515.0138504155125,403.22270336819344L517.3130193905818,399.15931899935975L519.612188365651,406.94855703455244L521.9113573407202,415.20616165686704L524.2105263157895,410.6722804281307L526.5096952908588,407.54393976566496L528.808864265928,407.6954900585883L531.1080332409972,413.1709164377679L533.4072022160665,397.1266553036911L535.7063711911358,406.7655720399068L538.005540166205,397.0765455122925L540.3047091412742,401.1041319525022L542.6038781163435,411.05490564934024L544.9030470914126,421.0970537848115L547.202216066482,426.186612552432L549.5013850415512,435.2863465757048L551.8005540166205,430.30473759456567L554.0997229916898,403.54864929652445L556.398891966759,410.430144801047L558.6980609418283,412.2086896460211L560.9972299168975,410.5563570969721L563.2963988919668,405.13779639633196L565.595567867036,407.390438131601L567.8947368421053,398.7420827653308L570.1939058171745,394.30522831757077L572.4930747922438,392.2349948656408L574.792243767313,404.47491577327634L577.0914127423823,385.1554427202527L579.3905817174515,385.43454458773607L581.6897506925208,377.4791903050951L583.98891966759,394.5513271014064L586.2880886426593,379.93974677453934L588.5872576177285,376.40460013846746L590.8864265927978,349.6748250278699L593.185595567867,372.5426623461808L595.4847645429363,371.1661180038971L597.7839335180056,377.80141059804157L600.0831024930748,379.57999926142026L602.382271468144,388.7076426234745L604.6814404432133,410.83869487821426L606.9806094182826,413.1994092682605L609.2797783933518,403.9421154287634L611.578947368421,417.01618881131765L613.8781163434903,417.0149138272514L616.1772853185596,399.29920660909625L618.4764542936288,405.50838812027933L620.775623268698,406.01624823618516L623.0747922437673,383.73755708878673L625.3739612188366,385.8406659245651L627.6731301939058,394.3346623757171L629.972299168975,390.0063261820366L632.2714681440443,396.80282206686974L634.5706371191136,401.3234748484755L636.8698060941829,401.161384490768L639.168975069252,387.8259553812014L641.4681440443213,398.2928047808554L643.7673130193906,406.7997595020414L646.0664819944599,412.24476697130774L648.365650969529,415.7922611698658L650.6648199445983,417.2029841616722L652.9639889196676,406.795174490059L655.2631578947369,410.4114085233633L657.562326869806,415.8732210072676L659.8614958448753,413.2334619998265L662.1606648199446,380.25966353223845L664.4598337950139,389.1108761810139L666.759002770083,371.45128988686946L669.0581717451523,340.2940234142573L671.3573407202216,371.59949250991093L673.6565096952909,387.00472245342445L675.9556786703602,385.39889895230004L678.2548476454293,392.78299763770224L680.5540166204987,409.58048389114583L682.8531855955679,411.83167848797217L685.1523545706372,411.5951184751229L687.4515235457063,379.2408796125172L689.7506925207756,367.14086803055744L692.0498614958449,373.4040058596104L694.3490304709142,382.9768268560044L696.6481994459833,396.5108119649837L698.9473684210526,399.3130627850447L701.2465373961219,404.6725100689497L703.5457063711912,414.1492882718486L705.8448753462603,411.76382500380174L708.1440443213296,412.3090364725141L710.4432132963989,409.39960536660857L712.7423822714682,408.881357077356L715.0415512465374,418.3600914140504L717.3407202216066,434.8277498190765L719.639889196676,387.7180052932953L721.9390581717452,399.42477607469556L724.2382271468144,400.38731420116477L726.5373961218836,407.1449419956275L728.836565096953,382.7234581967592L731.1357340720222,392.7238317390824L733.4349030470914,372.84702003424144L735.7340720221606,389.1730866684826L738.0332409972299,382.4864168787799L740.3324099722992,396.3504960312837L742.6315789473684,390.1374312251406L744.9307479224376,389.58473415266L747.2299168975069,393.10274493911095L749.5290858725762,412.58545900933115L751.8282548476454,417.12229685907175L754.1274238227147,407.22417713375467L756.4265927977839,417.25619994332027L758.7257617728533,428.5190494211839L761.0249307479224,416.7402672959055L763.3240997229917,417.0219110482736L765.6232686980609,409.828603621404L767.9224376731303,411.4973703762385L770.2216066481994,414.79639782486186L772.5207756232687,401.1617468024932L774.8199445983379,408.0892188243909L777.1191135734073,417.7839413695282L779.4182825484764,407.3310346875739L781.7174515235457,416.90479854865794L784.0166204986149,418.2620591848473L786.3157894736842,433.674215260411L788.6149584487534,402.58850572994163L790.9141274238227,409.88383998360035L793.213296398892,391.13458327973103L795.5124653739612,382.5356994462682L797.8116343490306,381.2448235856488L800.1108033240997,405.47027575313354L802.409972299169,385.9571294630258L804.7091412742382,396.7488051606855L807.0083102493076,402.196356451875L809.3074792243767,395.09403786503213L811.606648199446,381.96782003545616L813.9058171745152,373.76579742349253L816.2049861495846,380.73107139112915L818.5041551246537,378.48207479625086L820.803324099723,399.685701014689L823.1024930747922,408.25677957333465L825.4016620498616,410.2974766931861L827.7008310249307,387.6014481737501L830,392.94096930798435" class="rv-xy-plot__series rv-xy-plot__series--line" transform="translate(50,10)" style="opacity: 1; stroke-width: 1.5; stroke: rgb(71, 154, 95);"/><g class="rv-xy-plot__series rv-xy-plot__series--mark" transform="translate(50,10)"><circle r="2" cx="830" cy="392.94096930798435" style="opacity: 1; stroke: rgb(71, 154, 95); fill: rgb(71, 154, 95); stroke-width: 1;"/></g><g class="rv-xy-plot__series rv-xy-plot__series--mark" transform="translate(50,10)"><circle r="2" cx="830" cy="405.8317136468306" style="opacity: 1; stroke: rgba(71, 154, 95, 0.1); fill: rgba(71, 154, 95, 0.1); stroke-width: 1;"/></g><g class="rv-xy-plot__series rv-xy-plot__series--mark" transform="translate(50,10)"><circle r="2" cx="830" cy="393.29224624974813" style="opacity: 1; stroke: rgb(237, 183, 50); fill: rgb(237, 183, 50); stroke-width: 1;"/></g><g class="rv-xy-plot__series rv-xy-plot__series--mark" transform="translate(50,10)"><circle r="2" cx="830" cy="403.38867107961823" style="opacity: 1; stroke: rgba(237, 183, 50, 0.1); fill: rgba(237, 183, 50, 0.1); stroke-width: 1;"/></g><g class="rv-xy-plot__series rv-xy-plot__series--mark" transform="translate(50,10)"><circle r="2" cx="2.299168975069252" cy="364.34365142998695" style="opacity: 1; stroke: rgb(197, 101, 199); fill: rgb(197, 101, 199); stroke-width: 1;"/></g><g class="rv-xy-plot__series rv-xy-plot__series--mark" transform="translate(50,10)"><circle r="2" cx="2.299168975069252" cy="365.053171994047" style="opacity: 1; stroke: rgba(197, 101, 199, 0.1); fill: rgba(197, 101, 199, 0.1); stroke-width: 1;"/></g><defs class="rv-gradient-defs"><linearGradient id="leftFadeGradient" x1="0" x2="1" y1="0" y2="0"><stop offset="0%" stop-color="white" stop-opacity="1"/><stop offset="60%" stop-color="white" stop-opacity="1"/><stop offset="100%" stop-color="white" stop-opacity="0"/></linearGradient><linearGradient id="rightFadeGradient" x1="1" x2="0" y1="0" y2="0"><stop offset="0%" stop-color="white" stop-opacity="1"/><stop offset="100%" stop-color="white" stop-opacity="0"/></linearGradient><linearGradient id="bottomFadeGradient" x1="0" x2="0" y1="1" y2="0"><stop offset="0%" stop-color="white" stop-opacity="1"/><stop offset="40%" stop-color="white" stop-opacity="1"/><stop offset="100%" stop-color="white" stop-opacity="0"/></linearGradient><linearGradient id="topFadeGradient" x1="0" x2="0" y1="0" y2="1"><stop offset="0%" stop-color="white" stop-opacity="1"/><stop offset="100%" stop-color="white" stop-opacity="0"/></linearGradient></defs><g class="rv-xy-plot__borders plot-border"><rect class="rv-xy-plot__borders-bottom plot-border-bottom" x="0" y="530" width="900" height="34" style="fill: url(&quot;#bottomFadeGradient&quot;); opacity: 1;"/><rect class="rv-xy-plot__borders-left plot-border-left" x="0" y="0" width="50" height="564" style="fill: url(&quot;#leftFadeGradient&quot;); opacity: 1;"/><rect class="rv-xy-plot__borders-right plot-border-right" x="880" y="0" width="20" height="564" style="fill: url(&quot;#rightFadeGradient&quot;); opacity: 1;"/><rect class="rv-xy-plot__borders-top plot-border-top" x="0" y="0" width="900" height="10" style="fill: url(&quot;#topFadeGradient&quot;); opacity: 1;"/></g><g transform="translate(50,530)" class="rv-xy-plot__axis rv-xy-plot__axis--horizontal" style="font-family: &quot;Source Sans Pro&quot;; opacity: 0.9;"><line x1="0" x2="830" y1="0" y2="0" class="rv-xy-plot__axis__line" style="font-family: &quot;Source Sans Pro&quot;; opacity: 0.9; stroke-width: 0;"/><g transform="translate(0, 0)" class="rv-xy-plot__axis__ticks"><g transform="translate(0, 0)" class="rv-xy-plot__axis__tick" style="font-family: &quot;Source Sans Pro&quot;; opacity: 0.9;"><line x1="0" x2="0" y1="-6" y2="6" class="rv-xy-plot__axis__tick__line" style="font-family: &quot;Source Sans Pro&quot;; opacity: 0.9; stroke-width: 0;"/><text text-anchor="middle" dy="0.72em" transform="translate(0, 14)" class="rv-xy-plot__axis__tick__text" style="font-family: sans-serif; opacity: 0.9;">0</text></g><g transform="translate(229.91689750692524, 0)" class="rv-xy-plot__axis__tick" style="font-family: &quot;Source Sans Pro&quot;; opacity: 0.9;"><line x1="0" x2="0" y1="-6" y2="6" class="rv-xy-plot__axis__tick__line" style="font-family: &quot;Source Sans Pro&quot;; opacity: 0.9; stroke-width: 0;"/><text text-anchor="middle" dy="0.72em" transform="translate(0, 14)" class="rv-xy-plot__axis__tick__text" style="font-family: sans-serif; opacity: 0.9;">100</text></g><g transform="translate(459.8337950138505, 0)" class="rv-xy-plot__axis__tick" style="font-family: &quot;Source Sans Pro&quot;; opacity: 0.9;"><line x1="0" x2="0" y1="-6" y2="6" class="rv-xy-plot__axis__tick__line" style="font-family: &quot;Source Sans Pro&quot;; opacity: 0.9; stroke-width: 0;"/><text text-anchor="middle" dy="0.72em" transform="translate(0, 14)" class="rv-xy-plot__axis__tick__text" style="font-family: sans-serif; opacity: 0.9;">200</text></g><g transform="translate(689.7506925207756, 0)" class="rv-xy-plot__axis__tick" style="font-family: &quot;Source Sans Pro&quot;; opacity: 0.9;"><line x1="0" x2="0" y1="-6" y2="6" class="rv-xy-plot__axis__tick__line" style="font-family: &quot;Source Sans Pro&quot;; opacity: 0.9; stroke-width: 0;"/><text text-anchor="middle" dy="0.72em" transform="translate(0, 14)" class="rv-xy-plot__axis__tick__text" style="font-family: sans-serif; opacity: 0.9;">300</text></g></g><g transform="translate(0, 0)" class="rv-xy-plot__axis__title"><g transform="translate(824, -6) rotate(0)" style="text-anchor: end; font-family: &quot;Source Sans Pro&quot;; opacity: 0.9;"><text style="font-family: sans-serif; opacity: 0.9;">Step</text></g></g></g><g transform="translate(50,530)" class="rv-xy-plot__axis rv-xy-plot__axis--horizontal"><line x1="0" x2="0" y1="0" y2="0" class="rv-xy-plot__axis__line"/><g transform="translate(0, 0)" class="rv-xy-plot__axis__ticks"><g transform="translate(0, 0)" class="rv-xy-plot__axis__tick"><line x1="0" x2="0" y1="-6" y2="6" class="rv-xy-plot__axis__tick__line"/><text text-anchor="middle" dy="0.72em" transform="translate(0, 14)" class="rv-xy-plot__axis__tick__text" style="font-family: sans-serif;"/></g><g transform="translate(229.91689750692524, 0)" class="rv-xy-plot__axis__tick"><line x1="0" x2="0" y1="-6" y2="6" class="rv-xy-plot__axis__tick__line"/><text text-anchor="middle" dy="0.72em" transform="translate(0, 14)" class="rv-xy-plot__axis__tick__text" style="font-family: sans-serif;"/></g><g transform="translate(459.8337950138505, 0)" class="rv-xy-plot__axis__tick"><line x1="0" x2="0" y1="-6" y2="6" class="rv-xy-plot__axis__tick__line"/><text text-anchor="middle" dy="0.72em" transform="translate(0, 14)" class="rv-xy-plot__axis__tick__text" style="font-family: sans-serif;"/></g><g transform="translate(689.7506925207756, 0)" class="rv-xy-plot__axis__tick"><line x1="0" x2="0" y1="-6" y2="6" class="rv-xy-plot__axis__tick__line"/><text text-anchor="middle" dy="0.72em" transform="translate(0, 14)" class="rv-xy-plot__axis__tick__text" style="font-family: sans-serif;"/></g></g></g><g transform="translate(0,10)" class="rv-xy-plot__axis rv-xy-plot__axis--vertical" style="font-family: &quot;Source Sans Pro&quot;; opacity: 0.9;"><line x1="50" x2="50" y1="0" y2="520" class="rv-xy-plot__axis__line" style="font-family: &quot;Source Sans Pro&quot;; opacity: 0.9; stroke: none;"/><g transform="translate(50, 0)" class="rv-xy-plot__axis__ticks"><g transform="translate(0, 520)" class="rv-xy-plot__axis__tick" style="font-family: &quot;Source Sans Pro&quot;; opacity: 0.9;"><line y1="0" y2="0" x1="6" x2="-6" class="rv-xy-plot__axis__tick__line" style="font-family: &quot;Source Sans Pro&quot;; opacity: 0.9; stroke: none;"/><text text-anchor="end" dy="0.32em" transform="translate(-14, 0)" class="rv-xy-plot__axis__tick__text" style="font-family: sans-serif; opacity: 0.9;">0</text></g><g transform="translate(0, 442.36048483233003)" class="rv-xy-plot__axis__tick" style="font-family: &quot;Source Sans Pro&quot;; opacity: 0.9;"><line y1="0" y2="0" x1="6" x2="-6" class="rv-xy-plot__axis__tick__line" style="font-family: &quot;Source Sans Pro&quot;; opacity: 0.9; stroke: none;"/><text text-anchor="end" dy="0.32em" transform="translate(-14, 0)" class="rv-xy-plot__axis__tick__text" style="font-family: sans-serif; opacity: 0.9;">1</text></g><g transform="translate(0, 364.7209696646601)" class="rv-xy-plot__axis__tick" style="font-family: &quot;Source Sans Pro&quot;; opacity: 0.9;"><line y1="0" y2="0" x1="6" x2="-6" class="rv-xy-plot__axis__tick__line" style="font-family: &quot;Source Sans Pro&quot;; opacity: 0.9; stroke: none;"/><text text-anchor="end" dy="0.32em" transform="translate(-14, 0)" class="rv-xy-plot__axis__tick__text" style="font-family: sans-serif; opacity: 0.9;">2</text></g><g transform="translate(0, 287.08145449699015)" class="rv-xy-plot__axis__tick" style="font-family: &quot;Source Sans Pro&quot;; opacity: 0.9;"><line y1="0" y2="0" x1="6" x2="-6" class="rv-xy-plot__axis__tick__line" style="font-family: &quot;Source Sans Pro&quot;; opacity: 0.9; stroke: none;"/><text text-anchor="end" dy="0.32em" transform="translate(-14, 0)" class="rv-xy-plot__axis__tick__text" style="font-family: sans-serif; opacity: 0.9;">3</text></g><g transform="translate(0, 209.4419393293202)" class="rv-xy-plot__axis__tick" style="font-family: &quot;Source Sans Pro&quot;; opacity: 0.9;"><line y1="0" y2="0" x1="6" x2="-6" class="rv-xy-plot__axis__tick__line" style="font-family: &quot;Source Sans Pro&quot;; opacity: 0.9; stroke: none;"/><text text-anchor="end" dy="0.32em" transform="translate(-14, 0)" class="rv-xy-plot__axis__tick__text" style="font-family: sans-serif; opacity: 0.9;">4</text></g><g transform="translate(0, 131.80242416165024)" class="rv-xy-plot__axis__tick" style="font-family: &quot;Source Sans Pro&quot;; opacity: 0.9;"><line y1="0" y2="0" x1="6" x2="-6" class="rv-xy-plot__axis__tick__line" style="font-family: &quot;Source Sans Pro&quot;; opacity: 0.9; stroke: none;"/><text text-anchor="end" dy="0.32em" transform="translate(-14, 0)" class="rv-xy-plot__axis__tick__text" style="font-family: sans-serif; opacity: 0.9;">5</text></g><g transform="translate(0, 54.162908993980295)" class="rv-xy-plot__axis__tick" style="font-family: &quot;Source Sans Pro&quot;; opacity: 0.9;"><line y1="0" y2="0" x1="6" x2="-6" class="rv-xy-plot__axis__tick__line" style="font-family: &quot;Source Sans Pro&quot;; opacity: 0.9; stroke: none;"/><text text-anchor="end" dy="0.32em" transform="translate(-14, 0)" class="rv-xy-plot__axis__tick__text" style="font-family: sans-serif; opacity: 0.9;">6</text></g></g></g></svg></g><style xmlns="http://www.w3.org/1999/xhtml">/*&lt;![CDATA[*/<br />text { font-size: 10px; fill: black }<br />.react-vis-magic-css-import-rule{display:inherit}.rv-treemap{font-size:12px;position:relative}.rv-treemap__leaf{overflow:hidden;position:absolute}.rv-treemap__leaf--circle{align-items:center;border-radius:100%;display:flex;justify-content:center}.rv-treemap__leaf__content{overflow:hidden;padding:10px;text-overflow:ellipsis}.rv-xy-plot{color:#c3c3c3;position:relative}.rv-xy-plot canvas{pointer-events:none}.rv-xy-plot .rv-xy-canvas{pointer-events:none;position:absolute}.rv-xy-plot__inner{display:block}.rv-xy-plot__axis__line{fill:none;stroke-width:2px;stroke:#e6e6e9}.rv-xy-plot__axis__tick__line{stroke:#e6e6e9}.rv-xy-plot__axis__tick__text{fill:#6b6b76;font-size:11px}.rv-xy-plot__axis__title text{fill:#6b6b76;font-size:11px}.rv-xy-plot__grid-lines__line{stroke:#e6e6e9}.rv-xy-plot__circular-grid-lines__line{fill-opacity:0;stroke:#e6e6e9}.rv-xy-plot__series,.rv-xy-plot__series path{pointer-events:all}.rv-xy-plot__series--line{fill:none;stroke:#000;stroke-width:2px}.rv-crosshair{position:absolute;font-size:11px;pointer-events:none}.rv-crosshair__line{background:#47d3d9;width:1px}.rv-crosshair__inner{position:absolute;text-align:left;top:0}.rv-crosshair__inner__content{border-radius:4px;background:#3a3a48;color:#fff;font-size:12px;padding:7px 10px;box-shadow:0 2px 4px rgba(0,0,0,0.5)}.rv-crosshair__inner--left{right:4px}.rv-crosshair__inner--right{left:4px}.rv-crosshair__title{font-weight:bold;white-space:nowrap}.rv-crosshair__item{white-space:nowrap}.rv-hint{position:absolute;pointer-events:none}.rv-hint__content{border-radius:4px;padding:7px 10px;font-size:12px;background:#3a3a48;box-shadow:0 2px 4px rgba(0,0,0,0.5);color:#fff;text-align:left;white-space:nowrap}.rv-discrete-color-legend{box-sizing:border-box;overflow-y:auto;font-size:12px}.rv-discrete-color-legend.horizontal{white-space:nowrap}.rv-discrete-color-legend-item{color:#3a3a48;border-radius:1px;padding:9px 10px}.rv-discrete-color-legend-item.horizontal{display:inline-block}.rv-discrete-color-legend-item.horizontal .rv-discrete-color-legend-item__title{margin-left:0;display:block}.rv-discrete-color-legend-item__color{display:inline-block;vertical-align:middle;overflow:visible}.rv-discrete-color-legend-item__color__path{stroke:#dcdcdc;stroke-width:2px}.rv-discrete-color-legend-item__title{margin-left:10px}.rv-discrete-color-legend-item.disabled{color:#b8b8b8}.rv-discrete-color-legend-item.clickable{cursor:pointer}.rv-discrete-color-legend-item.clickable:hover{background:#f9f9f9}.rv-search-wrapper{display:flex;flex-direction:column}.rv-search-wrapper__form{flex:0}.rv-search-wrapper__form__input{width:100%;color:#a6a6a5;border:1px solid #e5e5e4;padding:7px 10px;font-size:12px;box-sizing:border-box;border-radius:2px;margin:0 0 9px;outline:0}.rv-search-wrapper__contents{flex:1;overflow:auto}.rv-continuous-color-legend{font-size:12px}.rv-continuous-color-legend .rv-gradient{height:4px;border-radius:2px;margin-bottom:5px}.rv-continuous-size-legend{font-size:12px}.rv-continuous-size-legend .rv-bubbles{text-align:justify;overflow:hidden;margin-bottom:5px;width:100%}.rv-continuous-size-legend .rv-bubble{background:#d8d9dc;display:inline-block;vertical-align:bottom}.rv-continuous-size-legend .rv-spacer{display:inline-block;font-size:0;line-height:0;width:100%}.rv-legend-titles{height:16px;position:relative}.rv-legend-titles__left,.rv-legend-titles__right,.rv-legend-titles__center{position:absolute;white-space:nowrap;overflow:hidden}.rv-legend-titles__center{display:block;text-align:center;width:100%}.rv-legend-titles__right{right:0}.rv-radial-chart .rv-xy-plot__series--label{pointer-events:none}<br /><br />/*]]&gt;*/</style></svg>